<?xml version="1.0" encoding="UTF-8"?><svg id="Layer_1" xmlns="http://www.w3.org/2000/svg" viewBox="0 0 1080 1080"><defs><style>.cls-1{fill:#fff;}</style></defs><g><polygon class="cls-1" points="441.06 304.27 399.57 326.16 399.57 397.86 577.21 499.75 541.34 522.14 439.81 467.04 439.81 440.12 399.57 418.99 399.57 489.43 540.49 569.69 620.27 523.39 620.27 476.35 441.06 372.7 441.06 304.27"/><polygon class="cls-1" points="680.42 396.6 680.42 326.16 539.51 245.9 459.73 292.19 459.73 339.24 638.94 442.89 638.94 511.32 680.42 489.43 680.42 417.73 502.79 315.84 538.65 293.45 640.18 348.55 640.18 375.47 680.42 396.6"/></g><g><path class="cls-1" d="M374.15,616.77c22.29,0,33.75,13.33,33.75,36.67v4.58h-21.67v-6.04c0-10.42-4.17-14.38-11.46-14.38s-11.46,3.96-11.46,14.38,4.58,18.54,19.59,31.67c19.17,16.88,25.21,28.96,25.21,45.63,0,23.34-11.67,36.67-34.17,36.67s-34.17-13.33-34.17-36.67v-8.96h21.67v10.42c0,10.42,4.58,14.17,11.88,14.17s11.88-3.75,11.88-14.17-4.58-18.54-19.58-31.67c-19.17-16.88-25.21-28.96-25.21-45.63,0-23.34,11.46-36.67,33.75-36.67Z"/><path class="cls-1" d="M496.66,764.29h-23.13l-3.96-26.46h-28.13l-3.96,26.46h-21.04l23.34-145.85h33.55l23.34,145.85Zm-52.3-46.26h22.09l-10.83-73.76h-.42l-10.83,73.76Z"/><path class="cls-1" d="M542.71,683.03h32.09v46.26c0,23.34-11.67,36.67-34.17,36.67s-34.17-13.33-34.17-36.67v-75.84c0-23.34,11.67-36.67,34.17-36.67s34.17,13.33,34.17,36.67v14.17h-21.67v-15.63c0-10.42-4.58-14.38-11.88-14.38s-11.88,3.96-11.88,14.38v78.76c0,10.42,4.58,14.17,11.88,14.17s11.88-3.75,11.88-14.17v-26.88h-10.42v-20.84Z"/><path class="cls-1" d="M664.81,764.29h-23.13l-3.96-26.46h-28.13l-3.96,26.46h-21.04l23.34-145.85h33.54l23.34,145.85Zm-52.3-46.26h22.09l-10.83-73.76h-.42l-10.83,73.76Z"/><path class="cls-1" d="M740.23,618.44v20.42l-43.55,104.6h43.55v20.84h-67.09v-20.42l43.55-104.6h-41.46v-20.84h65.01Z"/></g><g><path class="cls-1" d="M365.81,810.1h3.1v11.67c-2.88,2.58-6.99,3.89-11.24,3.89-9.31,0-16.13-6.6-16.13-15.56s6.82-15.56,16.18-15.56c4.63,0,8.66,1.49,11.37,4.42l-2.01,2.05c-2.58-2.54-5.64-3.58-9.22-3.58-7.56,0-13.12,5.38-13.12,12.68s5.55,12.68,13.07,12.68c2.93,0,5.64-.66,8-2.36v-10.32Z"/><path class="cls-1" d="M388.97,802.23v3.02c-.26,0-.53-.04-.74-.04-4.81,0-7.74,3.06-7.74,8.48v11.72h-3.1v-23h2.97v4.5c1.44-3.06,4.37-4.68,8.61-4.68Z"/><path class="cls-1" d="M392.03,813.9c0-6.82,4.98-11.67,11.71-11.67s11.67,4.85,11.67,11.67-4.94,11.72-11.67,11.72-11.71-4.9-11.71-11.72Zm20.24,0c0-5.38-3.63-8.96-8.53-8.96s-8.57,3.58-8.57,8.96,3.67,8.96,8.57,8.96,8.53-3.59,8.53-8.96Z"/><path class="cls-1" d="M454.85,802.4l-8.7,23h-2.93l-7.26-18.84-7.26,18.84h-2.93l-8.66-23h2.97l7.21,19.54,7.39-19.54h2.67l7.34,19.54,7.3-19.54h2.84Z"/><path class="cls-1" d="M472.29,824c-1.22,1.09-3.06,1.62-4.85,1.62-4.33,0-6.73-2.45-6.73-6.69v-13.9h-4.11v-2.62h4.11v-5.03h3.1v5.03h7v2.62h-7v13.73c0,2.71,1.4,4.2,3.98,4.2,1.27,0,2.54-.39,3.41-1.18l1.09,2.23Z"/><path class="cls-1" d="M499.08,812.07v13.33h-3.1v-13.03c0-4.85-2.54-7.35-6.91-7.35-4.94,0-8.04,3.06-8.04,8.31v12.07h-3.1v-32.44h3.1v13.46c1.71-2.67,4.72-4.2,8.61-4.2,5.6,0,9.44,3.23,9.44,9.84Z"/><path class="cls-1" d="M551.41,794.8v30.6h-3.1v-24.48l-12.02,20.59h-1.53l-12.02-20.46v24.35h-3.1v-30.6h2.67l13.29,22.69,13.16-22.69h2.67Z"/><path class="cls-1" d="M578.07,811.15v14.25h-2.97v-3.59c-1.4,2.36-4.11,3.8-7.91,3.8-5.2,0-8.39-2.71-8.39-6.69,0-3.54,2.27-6.51,8.88-6.51h7.3v-1.4c0-3.94-2.23-6.08-6.51-6.08-2.97,0-5.77,1.05-7.65,2.71l-1.4-2.32c2.32-1.97,5.73-3.1,9.36-3.1,5.95,0,9.31,2.97,9.31,8.92Zm-3.11,7.34v-3.76h-7.21c-4.46,0-5.9,1.75-5.9,4.11,0,2.67,2.14,4.33,5.81,4.33s6.08-1.66,7.3-4.68Z"/><path class="cls-1" d="M598.09,802.23v3.02c-.26,0-.53-.04-.74-.04-4.81,0-7.74,3.06-7.74,8.48v11.72h-3.1v-23h2.97v4.5c1.44-3.06,4.37-4.68,8.61-4.68Z"/><path class="cls-1" d="M612.2,813.86l-5.42,4.98v6.56h-3.1v-32.44h3.1v21.99l13.73-12.55h3.85l-9.84,9.4,10.75,13.6h-3.8l-9.27-11.54Z"/><path class="cls-1" d="M649.05,814.86h-19.23c.35,4.81,4.02,8,9.05,8,2.8,0,5.29-1.01,7.04-3.02l1.75,2.01c-2.05,2.45-5.25,3.76-8.87,3.76-7.17,0-12.07-4.9-12.07-11.72s4.77-11.67,11.23-11.67,11.15,4.77,11.15,11.67c0,.26-.04,.61-.04,.96Zm-19.23-2.32h16.31c-.39-4.5-3.67-7.65-8.18-7.65s-7.74,3.15-8.13,7.65Z"/><path class="cls-1" d="M667.54,824c-1.22,1.09-3.06,1.62-4.85,1.62-4.33,0-6.73-2.45-6.73-6.69v-13.9h-4.11v-2.62h4.11v-5.03h3.1v5.03h7v2.62h-7v13.73c0,2.71,1.4,4.2,3.98,4.2,1.27,0,2.54-.39,3.41-1.18l1.09,2.23Z"/><path class="cls-1" d="M672.48,795.15c0-1.18,1-2.19,2.27-2.19s2.27,.96,2.27,2.14c0,1.27-.96,2.27-2.27,2.27s-2.27-1-2.27-2.23Zm.7,7.26h3.1v23h-3.1v-23Z"/><path class="cls-1" d="M706.1,812.07v13.33h-3.1v-13.03c0-4.85-2.54-7.35-6.91-7.35-4.94,0-8.04,3.06-8.04,8.31v12.07h-3.1v-23h2.97v4.24c1.66-2.8,4.76-4.42,8.74-4.42,5.6,0,9.44,3.23,9.44,9.84Z"/><path class="cls-1" d="M735.91,802.4v20.2c0,7.91-3.89,11.5-11.5,11.5-4.2,0-8.3-1.27-10.71-3.54l1.57-2.36c2.19,1.97,5.51,3.15,9.05,3.15,5.81,0,8.48-2.67,8.48-8.35v-2.93c-1.92,2.93-5.2,4.46-8.96,4.46-6.56,0-11.54-4.59-11.54-11.19s4.98-11.1,11.54-11.1c3.85,0,7.17,1.57,9.09,4.59v-4.42h2.97Zm-3.02,10.93c0-4.98-3.67-8.39-8.74-8.39s-8.7,3.41-8.7,8.39,3.63,8.44,8.7,8.44,8.74-3.45,8.74-8.44Z"/></g></svg>